

<svg viewBox="0 0 100 100" xmlns="http://www.w3.org/2000/svg">
  <defs>
    <radialGradient id="fade" cx="50%" cy="50%" r="50%">
      <stop offset="0%" stop-color="white" stop-opacity="1"/>
      <stop offset="100%" stop-color="black" stop-opacity="0"/>
    </radialGradient>
  </defs>
  <circle cx="50" cy="50" r="48" fill="url(#fade)" />
  <g stroke="white" stroke-width="2">
    <path d="M50,50 m-40,0 a40,40 0 1,1 80,0 a40,40 0 1,1 -80,0" fill="none"/>
    <path d="M50,50 m-35,0 a35,35 0 1,1 70,0 a35,35 0 1,1 -70,0" fill="none"/>
    <path d="M50,50 m-30,0 a30,30 0 1,1 60,0 a30,30 0 1,1 -60,0" fill="none"/>
    <path d="M50,50 m-25,0 a25,25 0 1,1 50,0 a25,25 0 1,1 -50,0" fill="none"/>
    <path d="M50,50 m-20,0 a20,20 0 1,1 40,0 a20,20 0 1,1 -40,0" fill="none"/>
  </g>
</svg>